<?xml version="1.0" standalone="no"?>
<!DOCTYPE svg PUBLIC "-//W3C//DTD SVG 20010904//EN"
 "http://www.w3.org/TR/2001/REC-SVG-20010904/DTD/svg10.dtd">
<svg version="1.0" xmlns="http://www.w3.org/2000/svg"
 width="157.000000pt" height="157.000000pt" viewBox="0 0 157.000000 157.000000"
 preserveAspectRatio="xMidYMid meet">

<g transform="translate(0.000000,157.000000) scale(0.100000,-0.100000)"
fill="#000000" stroke="none">
<path d="M207 1362 c-75 -75 -137 -144 -137 -152 0 -8 92 -107 205 -220 l205
-205 -205 -205 c-113 -113 -205 -212 -205 -220 0 -20 271 -290 290 -290 8 0
107 92 220 205 l205 205 205 -205 c113 -113 212 -205 220 -205 20 0 290 271
290 290 0 8 -92 107 -205 220 l-205 205 205 205 c113 113 205 212 205 220 0
20 -271 290 -290 290 -8 0 -107 -92 -220 -205 l-205 -205 -205 205 c-113 113
-212 205 -220 205 -8 0 -77 -62 -153 -138z"/>
</g>
</svg>
